<svg width="1698" height="842" viewBox="0 0 1698 842" fill="none" xmlns="http://www.w3.org/2000/svg">
<path fill-rule="evenodd" clip-rule="evenodd" d="M1034.6 533H1008.6C1000.6 533 994.1 526.5 994.1 518.5V486.6L953.8 496.4L964.6 538.8C976 694 771.5 711 763.8 542.9L637.1 573.9V573.8L554.4 591.8L609.5 811.7L724.3 784C740.1 814.6 751.7 835.8 751.7 835.8H1106L1034.6 533Z" fill="#2E186A"/>
<path fill-rule="evenodd" clip-rule="evenodd" d="M138.238 194.001C169.169 194.387 197.086 198.397 222.239 205.72C223.83 206.183 224.744 207.848 224.281 209.439C223.817 211.03 222.152 211.944 220.562 211.481C196.789 204.56 170.446 200.655 141.297 200.052L140.547 200.037L140.396 200.721C139.857 203.174 139.318 206.036 138.813 209.274C134.811 234.944 135.413 264.704 143.797 295.82C144.228 297.42 143.28 299.066 141.681 299.497C140.081 299.928 138.435 298.981 138.003 297.381C129.482 265.755 128.778 235.513 132.741 209.285L132.885 208.35C133.409 204.988 133.971 202.006 134.535 199.435L134.702 198.686C134.784 198.326 134.863 197.987 134.939 197.669L135.263 196.371C135.28 196.305 135.295 196.249 135.308 196.204C135.67 194.889 136.874 193.984 138.238 194.001Z" fill="#DD6A91"/>
<path fill-rule="evenodd" clip-rule="evenodd" d="M218.247 207.773C218.538 206.142 220.097 205.056 221.728 205.347C223.359 205.639 224.445 207.197 224.153 208.828C218.399 241.031 218.867 272.358 224.746 303.036C225.058 304.663 223.992 306.235 222.365 306.547C220.737 306.859 219.166 305.792 218.854 304.165C212.84 272.782 212.361 240.716 218.247 207.773Z" fill="#DD6A91"/>
<path fill-rule="evenodd" clip-rule="evenodd" d="M314.254 25.812C315.17 24.7774 316.674 24.5021 317.897 25.1452L318.385 25.4079C318.769 25.6171 319.22 25.8672 319.736 26.1584L320.641 26.6741C321.73 27.299 322.929 28.0052 324.232 28.7932L324.797 29.1359C330.22 32.437 336.255 36.4186 342.749 41.0897C361.287 54.4223 379.818 70.617 397.117 89.7481C407.876 101.646 417.825 114.34 426.799 127.84C427.716 129.219 427.341 131.082 425.961 131.999C424.581 132.916 422.719 132.541 421.802 131.161C412.997 117.916 403.231 105.455 392.667 93.7723C375.67 74.9748 357.455 59.0571 339.246 45.9607C333.183 41.5997 327.536 37.857 322.438 34.7261L321.677 34.261C320.384 33.4739 319.194 32.7679 318.114 32.1426L317.156 31.5934L317.145 31.6055C265.062 90.9437 235.134 149.57 224.474 207.068L224.153 208.828C223.862 210.459 222.304 211.545 220.673 211.254C219.042 210.962 217.956 209.404 218.247 207.773C228.926 147.994 259.942 87.1716 314.254 25.812Z" fill="#DD6A91"/>
<path fill-rule="evenodd" clip-rule="evenodd" d="M583.364 257.037C618.427 242.3 659.166 240.889 705.875 255.131C707.235 255.545 708.117 256.857 707.988 258.273L707.927 258.878L707.782 260.191L707.611 261.599C707.413 263.186 707.169 264.964 706.875 266.92C705.85 273.733 704.433 281.318 702.562 289.483C697.214 312.814 689.291 336.148 678.278 357.953C677.531 359.432 675.727 360.025 674.248 359.278C672.769 358.531 672.175 356.727 672.922 355.248C683.697 333.915 691.467 311.031 696.713 288.143C698.55 280.131 699.939 272.695 700.941 266.028L701.143 264.663C701.303 263.552 701.446 262.509 701.571 261.536L701.742 260.156L701.409 260.058C657.607 247.22 619.536 248.642 586.703 262.147L585.689 262.568C557.985 274.212 534.928 294.091 516.125 319.915C505.127 335.02 496.266 351.219 489.36 367.417C486.944 373.084 484.946 378.342 483.344 383.055L482.984 384.123C482.638 385.162 482.331 386.117 482.064 386.981L481.716 388.125L481.492 388.897C481.052 390.494 479.401 391.433 477.803 390.993C476.206 390.553 475.268 388.901 475.708 387.304L475.963 386.421C476.033 386.186 476.11 385.93 476.195 385.652L476.475 384.749C476.817 383.659 477.212 382.448 477.663 381.123C479.313 376.272 481.364 370.874 483.841 365.064C490.914 348.473 499.989 331.883 511.274 316.384C530.679 289.732 554.561 269.142 583.364 257.037Z" fill="#DD6A91"/>
<path fill-rule="evenodd" clip-rule="evenodd" d="M532.953 37.7299C534.097 37.0418 535.557 37.1917 536.537 38.0978L536.863 38.4053L537.512 39.0324C538.183 39.6883 538.945 40.4532 539.792 41.3261L540.16 41.7068C542.991 44.6434 546.138 48.128 549.524 52.1502C559.177 63.6186 568.822 77.1104 577.823 92.5431C587.426 109.01 595.725 126.75 602.333 145.713C602.878 147.278 602.052 148.988 600.487 149.533C598.923 150.078 597.212 149.252 596.667 147.688C590.19 129.101 582.054 111.709 572.64 95.5658C563.82 80.4427 554.373 67.2291 544.933 56.0139L543.708 54.57C541.079 51.4956 538.615 48.7735 536.357 46.4096L535.84 45.8705C535.483 45.4994 535.14 45.1481 534.814 44.8164L534.069 44.0663L532.94 44.7534C482.929 75.2636 443.508 109.397 413.805 146.61L412.89 147.762C386.002 181.735 367.547 217.786 356.58 255.341C356.115 256.932 354.449 257.845 352.859 257.38C351.269 256.916 350.356 255.25 350.82 253.659C374.832 171.435 433.083 97.8338 532.953 37.7299Z" fill="#DD6A91"/>
<path fill-rule="evenodd" clip-rule="evenodd" d="M478.909 164.185C514.821 207.468 535.493 248.712 542.75 287.853C543.052 289.483 541.976 291.048 540.347 291.35C538.718 291.652 537.152 290.576 536.85 288.947C529.933 251.634 510.383 212.16 476.391 170.565L475.767 169.805L474.64 170.348C473.825 170.743 472.951 171.171 472.022 171.633L470.879 172.204L469.096 173.104C463.986 175.703 458.376 178.705 452.381 182.096C433.235 192.926 414.088 205.471 396.232 219.568C359.985 248.184 333.816 279.401 322.007 312.586C307.448 353.5 315.495 395.48 350.622 438.4C351.671 439.682 351.482 441.573 350.2 442.622C348.918 443.671 347.028 443.483 345.979 442.2C309.545 397.683 301.077 353.508 316.354 310.575C328.605 276.147 355.461 244.111 392.514 214.859C410.632 200.555 430.03 187.846 449.427 176.874L451.555 175.677C457.538 172.333 463.121 169.383 468.188 166.841L469.353 166.259C470.492 165.693 471.549 165.176 472.52 164.708L473.777 164.108L475.361 163.368C476.592 162.81 478.045 163.144 478.909 164.185Z" fill="#DD6A91"/>
<path fill-rule="evenodd" clip-rule="evenodd" d="M140.737 295.412C208.097 289.482 268.499 309.201 321.629 347.888C342.049 362.757 360.568 379.876 377.165 398.423C389.627 412.349 400.104 426.048 408.593 438.732C409.515 440.109 409.146 441.972 407.769 442.893C406.392 443.815 404.529 443.446 403.607 442.069C395.267 429.608 384.959 416.13 372.694 402.424C356.366 384.177 338.155 367.344 318.097 352.738C266.073 314.856 207.073 295.595 141.263 301.389C139.613 301.534 138.157 300.314 138.012 298.663C137.866 297.013 139.087 295.557 140.737 295.412Z" fill="#DD6A91"/>
<path fill-rule="evenodd" clip-rule="evenodd" d="M140.742 295.412C142.393 295.269 143.847 296.492 143.989 298.143C144.131 299.793 142.909 301.247 141.258 301.389C122.999 302.965 104.051 306.611 84.4418 312.365L83.0701 312.771L83.6417 313.954C83.8846 314.452 84.1393 314.969 84.4058 315.504L85.2408 317.162C88.2898 323.158 92.0014 329.846 96.3914 337.054C108.943 357.662 124.4 378.275 142.882 397.507C160.757 416.106 180.569 432.43 202.372 445.845C203.783 446.714 204.223 448.562 203.355 449.973C202.487 451.384 200.639 451.824 199.228 450.956C176.972 437.262 156.77 420.616 138.556 401.664C119.751 382.096 104.035 361.138 91.2671 340.175C86.7951 332.833 83.0093 326.011 79.8926 319.882L79.3119 318.732C78.6529 317.419 78.0591 316.204 77.5297 315.092L77.0917 314.165C76.9282 313.816 76.7786 313.493 76.6431 313.197L76.1719 312.15L76.1472 312.093C75.4373 310.454 76.3082 308.561 78.0151 308.034C99.6836 301.344 120.605 297.149 140.742 295.412Z" fill="#DD6A91"/>
<path fill-rule="evenodd" clip-rule="evenodd" d="M635.3 437.2C644.847 437.2 652.622 444.866 652.797 454.372L652.8 454.7V507.6C652.8 517.147 645.134 524.922 635.628 525.097L635.3 525.1L611.894 525.099L596.925 590.866C596.571 592.424 595.063 593.42 593.507 593.16L593.334 593.125C591.776 592.771 590.78 591.263 591.041 589.707L591.075 589.534L606.575 521.434C606.872 520.128 607.996 519.185 609.318 519.106L609.5 519.1H635.3C641.546 519.1 646.641 514.101 646.796 507.892L646.8 507.6V454.7C646.8 448.455 641.801 443.359 635.592 443.204L635.3 443.2H582C580.343 443.2 579 441.857 579 440.2C579 438.603 580.249 437.297 581.824 437.205L582 437.2H635.3Z" fill="#2E186A"/>
<path fill-rule="evenodd" clip-rule="evenodd" d="M443.7 437.3C445.357 437.3 446.7 438.643 446.7 440.3C446.7 441.898 445.451 443.204 443.876 443.295L443.7 443.3H213.5C207.254 443.3 202.159 448.3 202.004 454.508L202 454.8V507.7C202 513.946 206.999 519.041 213.208 519.197L213.5 519.2H237.6C238.939 519.2 240.108 520.087 240.48 521.359L240.525 521.534L312.425 837.334C312.793 838.95 311.781 840.558 310.166 840.925C308.608 841.28 307.058 840.352 306.619 838.837L306.575 838.666L235.206 525.2H213.5C203.953 525.2 196.178 517.534 196.003 508.029L196 507.7V454.8C196 445.253 203.666 437.479 213.172 437.303L213.5 437.3H443.7Z" fill="#2E186A"/>
<path fill-rule="evenodd" clip-rule="evenodd" d="M638.305 574.049L638.492 574.157L900.692 738.257C902.995 739.699 902.349 743.214 899.684 743.743L890.177 745.66C886.763 746.354 883.006 747.124 878.924 747.966L867.816 750.271C854.28 753.095 839.655 756.203 824.165 759.563C768.867 771.556 713.571 784.347 661.794 797.433L658.012 798.391C606.562 811.453 561.441 824.114 524.428 836.118L520.706 837.332C517.629 838.341 514.613 839.345 511.66 840.342C510.091 840.873 508.388 840.03 507.858 838.46C507.328 836.891 508.17 835.188 509.74 834.658L513.333 833.451C516.353 832.443 519.434 831.43 522.577 830.411L525.277 829.539C561.915 817.749 606.212 805.351 656.535 792.576C708.212 779.457 763.485 766.624 818.843 754.579L826.598 752.897C842.579 749.441 857.604 746.261 871.422 743.392L886.353 740.316L891.12 739.345L636.361 579.902L632.705 580.756C631.13 581.127 629.405 581.536 627.54 581.982L624.057 582.819C616.978 584.528 609.238 586.444 600.977 588.545C573.443 595.55 545.747 603.178 519.679 611.168C518.095 611.654 516.417 610.764 515.932 609.179C515.446 607.595 516.337 605.918 517.921 605.432C543.044 597.731 569.656 590.37 596.183 583.576L599.498 582.73C608.244 580.505 616.409 578.488 623.827 576.703L630.117 575.202L636.234 573.775C636.937 573.615 637.672 573.714 638.305 574.049Z" fill="#2E186A"/>
<path fill-rule="evenodd" clip-rule="evenodd" d="M534.862 342.651C551.749 337.094 568.812 337.707 586.024 345.155L598.761 350.781C638.552 368.4 658.931 378.365 672.797 388.004L673.215 388.296C682.353 394.704 687.308 400.34 687.626 405.888C687.995 412.324 682.384 416.935 671.402 420.147L670.922 420.286C656.512 424.389 634.342 436.819 606.688 455.559C600.613 459.676 594.335 464.056 587.891 468.666C572.524 479.657 556.91 491.439 541.868 503.22L539.123 505.375C535.82 507.974 532.713 510.442 529.828 512.753L526.549 515.389L523.31 518.013L523.335 522L523.353 526.314C523.434 548.792 523.282 574.086 522.736 598.354L522.608 603.744C521.882 632.621 520.648 655.216 518.803 669.325L518.674 670.296C515.19 696.474 508.25 724.695 500.223 747.015C499.662 748.575 497.944 749.384 496.385 748.823C494.826 748.263 494.016 746.544 494.577 744.985C502.32 723.453 509.054 696.246 512.541 670.876L512.853 668.552C514.727 654.22 515.973 630.688 516.684 600.558L516.789 595.872C517.291 572.385 517.431 548.041 517.353 526.335L517.3 516.627C517.292 515.72 517.694 514.859 518.395 514.283L521.859 511.465L523.755 509.934C527.791 506.686 532.314 503.088 537.24 499.224L538.168 498.496C553.275 486.665 568.956 474.833 584.4 463.786C590.884 459.148 597.203 454.739 603.322 450.592L605.842 448.892C632.279 431.127 653.624 419.216 668.357 414.785L670.151 414.26C678.415 411.787 681.793 408.973 681.636 406.231C681.459 403.139 677.485 398.618 669.77 393.208L668.957 392.643C656.078 383.773 636.956 374.334 601.012 358.344L584.284 350.943C568.213 343.82 552.454 343.179 536.736 348.351C517.264 354.743 504.315 363.435 490.076 380.025L489.548 380.643C476.856 395.572 465.149 413.289 435.189 461.965L432.356 466.571L432.282 466.685C378.463 545.962 342.412 635.361 330.941 711.037C320.195 781.926 333.027 829.61 364.206 834.943C365.839 835.223 366.936 836.773 366.657 838.406C366.378 840.039 364.827 841.137 363.194 840.857C327.509 834.753 313.826 783.908 325.009 710.138C336.501 634.322 372.282 545.121 425.694 465.718L427.291 463.353L431.862 455.925C460.395 409.619 472.021 392.077 484.576 377.23L484.977 376.757C500.136 358.928 514.094 349.468 534.862 342.651Z" fill="#2E186A"/>
<path fill-rule="evenodd" clip-rule="evenodd" d="M719.121 310.501L719.297 310.507C720.951 310.616 722.202 312.045 722.093 313.698C719.391 354.667 724.292 409.861 733.049 456.851C733.353 458.48 732.278 460.046 730.649 460.35C729.021 460.653 727.454 459.579 727.151 457.95C718.31 410.508 713.367 354.842 716.106 313.303C716.212 311.709 717.544 310.488 719.121 310.501Z" fill="#2E186A"/>
<path fill-rule="evenodd" clip-rule="evenodd" d="M963.712 365.335C963.858 363.685 965.315 362.466 966.965 362.612C976.25 363.436 985.121 366.078 992.111 371.311C1001.86 378.609 1006.46 389.995 1004.37 405.7C1002.48 419.772 995.428 428.557 984.464 432.441C976.177 435.376 966.264 435.339 955.715 433.243C954.09 432.92 953.034 431.341 953.357 429.715C953.68 428.09 955.26 427.035 956.885 427.358C966.47 429.263 975.372 429.296 982.461 426.785C991.291 423.657 996.835 416.755 998.426 404.906C1000.23 391.327 996.496 382.091 988.514 376.114C982.572 371.665 974.709 369.323 966.435 368.589C964.784 368.442 963.565 366.986 963.712 365.335Z" fill="#2E186A"/>
<path fill-rule="evenodd" clip-rule="evenodd" d="M947.559 471.993C949.108 471.599 950.681 472.487 951.159 473.991L951.207 474.16L967.507 538.16C967.551 538.331 967.579 538.505 967.592 538.681C970.276 575.216 961.301 606.168 942.824 628.88C925.889 649.696 901.724 662.414 875.632 664.875C849.464 667.343 823.388 659.308 802.929 641.827C780.55 622.705 765.997 593.478 761.819 556.235C761.634 554.589 762.819 553.104 764.465 552.919C766.112 552.735 767.596 553.92 767.781 555.566C771.795 591.347 785.65 619.17 806.827 637.265C826.038 653.68 850.501 661.218 875.068 658.901C899.572 656.59 922.259 644.65 938.17 625.093C955.473 603.824 964.011 574.763 961.682 540.17L961.626 539.383L945.393 475.641C944.998 474.093 945.886 472.519 947.39 472.042L947.559 471.993Z" fill="#2E186A"/>
<path fill-rule="evenodd" clip-rule="evenodd" d="M919.739 369.51C918.166 369.384 916.765 370.498 916.533 372.059L914.52 385.447L913.542 391.896C912.454 399.047 911.367 406.125 910.314 412.885L908.976 421.429C907.654 429.808 906.495 436.97 905.534 442.666L904.805 446.92L903.457 446.607C902.717 446.438 901.933 446.263 901.106 446.083L900.477 445.946C894.433 444.643 887.442 443.341 879.591 442.126C849.818 437.522 816.453 435.417 780.849 437.204L778.42 437.422L775.843 437.671C774.318 437.822 772.695 437.99 770.991 438.174C764.293 438.896 757.593 439.732 751.262 440.677L749.544 440.938C738.492 442.641 729.778 444.511 724.16 446.587C722.866 447.065 722.065 448.364 722.219 449.735L722.373 450.984L722.529 452.16C722.639 452.964 722.765 453.84 722.906 454.784L722.993 455.359C723.669 459.788 724.542 464.719 725.636 470.027C728.762 485.199 733.027 500.375 738.61 514.566C745.985 533.312 755.119 548.908 766.255 560.298C783.203 577.634 808.579 584.607 837.207 581.9C862.291 579.528 887.804 569.678 904.186 556.434C932.619 533.447 939.578 522.719 946.315 494.648L946.669 493.153C948.564 484.981 951.304 470.019 954.688 449.788L955.85 442.785L956.618 438.101C958.691 425.406 960.834 411.859 962.937 398.263L964.603 387.42L966.267 376.445C966.524 374.726 965.271 373.149 963.539 373.01L919.739 369.51ZM922.053 375.714L959.854 378.735L957.566 393.722L956.218 402.435C954.768 411.754 953.306 421.003 951.868 429.919L950.184 440.265L948.91 447.961C945.394 469.025 942.564 484.46 940.681 492.409L940.169 494.54C937.023 507.472 934.492 514.436 929.998 521.607L929.756 521.991C924.208 530.717 915.539 539.54 900.414 551.768C884.981 564.244 860.588 573.662 836.642 575.926C809.674 578.476 786.08 571.993 770.545 556.103C760.045 545.363 751.299 530.431 744.193 512.369C738.748 498.531 734.574 483.675 731.513 468.816C730.441 463.613 729.585 458.784 728.925 454.454L728.683 452.827L728.489 451.454L728.87 451.336C734.046 449.759 741.44 448.257 750.458 446.868C756.628 445.917 763.211 445.071 769.829 444.336L771.635 444.139C773.602 443.927 775.46 443.736 777.179 443.568L779.978 443.303L781.203 443.194L781.15 443.197C816.322 441.431 849.284 443.51 878.673 448.056C886.038 449.195 892.624 450.411 898.359 451.629L899.213 451.812C901.076 452.213 902.722 452.589 904.145 452.93L905.742 453.322L906.422 453.498C908.117 453.953 909.839 452.862 910.152 451.135L910.661 448.266C911.66 442.555 912.942 434.735 914.455 425.195L915.928 415.829L916.879 409.712C917.625 404.893 918.385 399.942 919.147 394.944L921.671 378.261L922.053 375.714Z" fill="#2E186A"/>
<path fill-rule="evenodd" clip-rule="evenodd" d="M961 389.2C961 389.2 981.9 346 988 310.4C993.8 277 976.2 243.4 944.8 230.7C918.5 220 909.9 223.5 909.9 223.5C909.9 223.5 925.5 195.7 884.9 154.8C870.6 140.4 850.8 132.4 830.5 132.9C780.8 134.2 765.3 176.2 765.3 176.2C765.3 176.2 712.3 78.3004 603.1 135.9C592.1 141.7 579.6 157.9 573.7 168.9C537.5 235.2 656 314.2 717.8 320.6C785.7 327.6 828.3 319.2 849 301.2C833.5 312 861.3 411.3 961 389.2Z" fill="#2E186A"/>
<path fill-rule="evenodd" clip-rule="evenodd" d="M777.399 408.205C779.538 408.312 781.201 410.081 781.2 412.199L781.195 412.399L778.283 470.905L794.966 465.495C797.001 464.835 799.182 465.895 799.936 467.872L800.005 468.066C800.665 470.102 799.605 472.283 797.628 473.037L797.434 473.105L775.234 480.305C772.629 481.15 769.986 479.189 770 476.487L770.005 476.301L773.205 412.001C773.311 409.862 775.08 408.199 777.199 408.2L777.399 408.205Z" fill="#2E186A"/>
<path fill-rule="evenodd" clip-rule="evenodd" d="M815.054 355.791C825.169 353.604 834.058 355.75 841.427 360.643C843.295 361.884 844.922 363.215 846.307 364.556L846.716 364.958C847.362 365.607 847.833 366.138 848.128 366.508C849.505 368.235 849.22 370.752 847.493 372.129C845.765 373.505 843.249 373.221 841.872 371.494C841.724 371.309 841.345 370.886 840.744 370.305C839.695 369.29 838.443 368.265 837.001 367.308C831.327 363.539 824.592 361.914 816.745 363.61C814.586 364.077 812.457 362.705 811.99 360.546C811.523 358.387 812.895 356.258 815.054 355.791Z" fill="#2E186A"/>
<path fill-rule="evenodd" clip-rule="evenodd" d="M748.765 340.716C752.643 339.923 756.655 340.134 760.501 340.951L761.122 341.088C762.115 341.317 762.889 341.542 763.397 341.716C765.486 342.432 766.6 344.707 765.884 346.797C765.19 348.821 763.034 349.93 760.999 349.346L760.567 349.211C760.507 349.193 760.435 349.172 760.354 349.149C759.913 349.023 759.405 348.896 758.84 348.776C755.98 348.169 753.013 348.013 750.369 348.554C746.615 349.322 743.961 351.379 742.431 355.341C741.635 357.402 739.32 358.427 737.259 357.632C735.198 356.836 734.173 354.52 734.968 352.459C737.53 345.827 742.457 342.007 748.765 340.716Z" fill="#2E186A"/>
<path fill-rule="evenodd" clip-rule="evenodd" d="M849.9 488.8C846.4 484 812.3 507.9 825.6 510.1C838.9 512.2 857.4 499.1 849.9 488.8Z" fill="#2E186A"/>
<path fill-rule="evenodd" clip-rule="evenodd" d="M706.9 484.401L836.4 440.601C836.4 440.601 853.7 434.001 853.1 411.501C852.5 389.001 824.2 380.601 824.2 380.601L686.1 361.101L706.9 484.401Z" fill="#DD6A91"/>
<path fill-rule="evenodd" clip-rule="evenodd" d="M568.3 484.401L697.8 440.601C697.8 440.601 715.1 434.001 714.5 411.501C713.9 389.001 685.6 380.601 685.6 380.601L618.8 385.001L547.5 361.101L568.3 484.401Z" fill="#DD6A91"/>
<circle cx="684.8" cy="424.501" r="63.9" fill="#2E186A"/>
<circle cx="545.2" cy="425.4" r="63.9" fill="#2E186A"/>
<path fill-rule="evenodd" clip-rule="evenodd" d="M633.2 317.591L634.466 317.325C649.875 314.139 665.265 312.695 671.532 313.632C679.335 314.768 680.878 322.179 675.708 329.343C670.649 336.355 660.107 342.921 645.578 347.369C643.994 347.854 642.317 346.963 641.832 345.379C641.346 343.794 642.237 342.117 643.822 341.632C657.198 337.536 666.641 331.654 670.842 325.832C673.629 321.971 673.296 320.028 670.811 319.592L670.656 319.567C665.157 318.745 650.033 320.188 635.049 323.333L634.45 323.46C615.169 327.567 598.226 333.823 587.034 341.749C585.682 342.706 583.809 342.386 582.852 341.034C581.894 339.682 582.214 337.81 583.566 336.852C595.544 328.37 613.192 321.853 633.2 317.591Z" fill="#2E186A"/>
<path fill-rule="evenodd" clip-rule="evenodd" d="M600.686 337.887C615.164 334.337 635.159 337.927 657.344 346.518L658.119 346.819C675.14 353.484 692.257 362.877 697.874 368.143L698.063 368.323C701.521 371.598 701.933 375.97 699.017 379.422C696.508 382.393 691.823 384.332 685.765 384.971C671.869 386.438 652.616 381.266 630.927 368.818L630.195 368.395L629.531 367.969L628.982 367.627C628.691 367.448 628.376 367.258 628.039 367.06C626.424 366.11 624.641 365.159 622.751 364.272C618.8 362.42 614.929 361.109 611.388 360.574C609.627 360.308 607.987 360.242 606.488 360.387C604.839 360.546 603.373 359.338 603.214 357.689C603.055 356.039 604.263 354.573 605.912 354.414C607.931 354.22 610.059 354.306 612.284 354.642C616.473 355.275 620.866 356.762 625.298 358.84C627.368 359.81 629.313 360.848 631.08 361.888L631.828 362.334C632.367 362.66 632.804 362.936 633.127 363.147L633.276 363.245L633.911 363.613C654.348 375.343 672.212 380.214 684.706 379.047L685.135 379.005C689.795 378.513 693.08 377.153 694.433 375.551C695.195 374.648 695.16 373.898 694.065 372.803L693.916 372.658C689.175 368.079 672.474 358.884 655.931 352.406C634.492 344.011 615.263 340.491 602.114 343.714C600.505 344.109 598.881 343.124 598.486 341.515C598.092 339.906 599.077 338.281 600.686 337.887Z" fill="#2E186A"/>
<path fill-rule="evenodd" clip-rule="evenodd" d="M570.459 337.67C584.957 334.5 604.79 338.221 626.668 346.753L627.45 347.06C644.297 353.702 661.136 362.955 666.675 368.143L666.863 368.323C670.321 371.598 670.732 375.97 667.817 379.422C665.307 382.393 660.623 384.332 654.565 384.971C640.669 386.438 621.416 381.266 599.727 368.818L598.995 368.395L598.33 367.969L597.782 367.627C597.491 367.448 597.176 367.258 596.839 367.06C595.223 366.11 593.441 365.159 591.551 364.272C587.6 362.42 583.729 361.109 580.188 360.574C578.427 360.308 576.786 360.242 575.288 360.387C573.639 360.546 572.173 359.338 572.014 357.689C571.855 356.039 573.063 354.573 574.712 354.414C576.731 354.22 578.859 354.306 581.084 354.642C585.273 355.275 589.666 356.762 594.098 358.84C596.168 359.81 598.112 360.848 599.88 361.888L600.628 362.334C601.167 362.66 601.603 362.936 601.927 363.147L602.076 363.245L602.711 363.613C623.148 375.343 641.012 380.214 653.506 379.047L653.935 379.005C658.595 378.513 661.879 377.153 663.233 375.551C663.995 374.648 663.96 373.898 662.865 372.803L662.716 372.659C658.051 368.155 641.621 359.097 625.25 352.641L623.723 352.046C603.158 344.12 584.649 340.709 571.741 343.531C570.122 343.885 568.523 342.86 568.169 341.241C567.815 339.623 568.841 338.024 570.459 337.67Z" fill="#2E186A"/>
<path fill-rule="evenodd" clip-rule="evenodd" d="M537.003 341.995C550.994 335.287 572.315 337.864 597.161 347.01L598.358 347.455C616.53 354.283 635.357 364.464 641.163 370.022C644.621 373.298 645.032 377.67 642.117 381.122C639.608 384.093 634.923 386.032 628.865 386.671C614.969 388.138 595.716 382.966 574.027 370.518L573.295 370.095L572.63 369.669L572.082 369.327C571.791 369.148 571.476 368.958 571.139 368.76C569.523 367.81 567.741 366.859 565.851 365.972C561.9 364.119 558.029 362.809 554.488 362.274C552.727 362.008 551.086 361.942 549.588 362.086C547.939 362.246 546.473 361.038 546.314 359.388C546.155 357.739 547.363 356.273 549.012 356.114C551.031 355.919 553.159 356.005 555.384 356.342C559.573 356.974 563.966 358.461 568.398 360.54C570.468 361.51 572.412 362.548 574.18 363.588L574.928 364.034C575.467 364.36 575.903 364.636 576.227 364.847L576.376 364.945L577.011 365.312C597.448 377.043 615.312 381.914 627.806 380.747L628.235 380.704C632.895 380.213 636.179 378.853 637.533 377.251C638.328 376.309 638.255 375.532 637.025 374.367L636.669 374.037C631.045 368.98 612.939 359.279 595.664 352.854L595.089 352.641C571.648 344.012 551.702 341.602 539.597 347.405C538.103 348.122 536.311 347.491 535.595 345.997C534.879 344.503 535.509 342.711 537.003 341.995Z" fill="#2E186A"/>
<path fill-rule="evenodd" clip-rule="evenodd" d="M1061.35 47.7514C1089.31 42.5159 1116.62 59.1808 1122.75 85.177L1122.93 85.9676L1142.73 177.768C1143.08 179.387 1142.05 180.983 1140.43 181.333C1138.87 181.67 1137.33 180.724 1136.91 179.204L1136.87 179.033L1117.07 87.2384C1112.02 64.0529 1087.58 48.9428 1062.45 53.6489C1037.57 58.3091 1021.44 80.465 1025.99 103.372L1026.13 104.067L1055.73 241.067C1056.08 242.686 1055.05 244.283 1053.43 244.632C1051.87 244.97 1050.33 244.025 1049.91 242.505L1049.87 242.334L1020.27 105.336C1014.51 78.7807 1032.98 53.0633 1061.35 47.7514Z" fill="#2E186A"/>
<path fill-rule="evenodd" clip-rule="evenodd" d="M1172.6 48.4054C1173.46 21.3931 1197.69 0.154549 1226.49 1.00153C1255.1 1.84011 1277.7 23.8329 1277.32 50.4636L1274.1 185.072C1274.06 186.728 1272.68 188.039 1271.03 187.999C1269.43 187.961 1268.16 186.681 1268.1 185.105L1268.1 184.929L1271.3 51.1054C1272.05 27.5126 1252 7.75163 1226.31 6.99894C1200.99 6.25407 1179.77 24.615 1178.63 47.8892L1178.6 48.596L1174.6 173.896C1174.55 175.552 1173.16 176.852 1171.5 176.799C1169.91 176.748 1168.64 175.458 1168.6 173.881L1168.6 173.705L1172.6 48.4054Z" fill="#2E186A"/>
<path fill-rule="evenodd" clip-rule="evenodd" d="M1319.97 85.7622C1325.73 59.32 1353.31 42.2633 1381.55 47.5517C1409.61 52.8054 1428.03 78.1427 1422.8 104.34L1422.63 105.134L1394.53 235.234C1394.18 236.853 1392.59 237.883 1390.97 237.533C1389.41 237.196 1388.39 235.699 1388.64 234.14L1388.67 233.967L1416.77 103.862C1421.79 80.7861 1405.56 58.1509 1380.45 53.4492C1355.57 48.7902 1331.37 63.553 1325.97 86.4266L1325.81 87.1223L1302.31 181.922C1301.91 183.53 1300.29 184.511 1298.68 184.112C1297.13 183.728 1296.16 182.201 1296.45 180.651L1296.49 180.479L1319.97 85.7622Z" fill="#2E186A"/>
<path fill-rule="evenodd" clip-rule="evenodd" d="M1444.66 178.98C1457.62 154.862 1488.94 145.12 1514.76 157.078C1540.45 168.974 1551.06 197.892 1538.63 221.991L1538.24 222.72L1415.04 452.12C1414.26 453.579 1412.44 454.127 1410.98 453.343C1409.57 452.588 1409.01 450.874 1409.68 449.445L1409.76 449.281L1532.96 219.88C1544.32 198.737 1535.11 173.113 1512.24 162.523C1489.48 151.983 1461.93 160.376 1450.29 181.185L1449.94 181.819L1418.64 240.119C1417.86 241.579 1416.04 242.127 1414.58 241.343C1413.18 240.589 1412.61 238.874 1413.28 237.445L1413.36 237.281L1444.66 178.98Z" fill="#2E186A"/>
<path fill-rule="evenodd" clip-rule="evenodd" d="M1001.88 397.457C1003.29 396.702 1005.03 397.183 1005.85 398.523L1005.94 398.681L1032.94 448.981C1033.73 450.441 1033.18 452.26 1031.72 453.043C1030.31 453.798 1028.57 453.318 1027.75 451.977L1027.66 451.819L1000.66 401.519C999.873 400.059 1000.42 398.241 1001.88 397.457Z" fill="#2E186A"/>
<path fill-rule="evenodd" clip-rule="evenodd" d="M928.139 157.078C953.703 145.239 984.655 154.669 997.849 178.262L998.243 178.981L1035.24 247.881C1036.03 249.341 1035.48 251.159 1034.02 251.943C1032.61 252.698 1030.88 252.218 1030.05 250.878L1029.96 250.72L992.957 181.821C981.524 160.548 953.649 151.876 930.661 162.523C908.021 173.007 898.765 198.226 909.608 219.245L909.943 219.88L989.743 368.38C990.527 369.84 989.98 371.659 988.52 372.443C987.115 373.198 985.376 372.719 984.549 371.379L984.457 371.22L904.657 222.721C891.628 198.478 902.193 169.094 928.139 157.078Z" fill="#2E186A"/>
<path fill-rule="evenodd" clip-rule="evenodd" d="M1155.52 169.424C1182.36 166.03 1206.91 188.479 1210.87 219.42L1210.98 220.36L1222.02 317.216L1243.17 219.871C1249.66 189.624 1276.11 171.718 1302.44 179.896L1303.24 180.152C1329.34 188.78 1345.12 219.81 1339.02 249.827L1338.83 250.736L1319.55 339.632L1355.17 261.46C1367.67 233.94 1397.23 223.94 1421.31 239.021L1422.04 239.485C1445.68 254.864 1454.84 289.039 1442.9 316.415L1442.53 317.242L1381.13 452.242C1380.44 453.75 1378.67 454.417 1377.16 453.731C1375.7 453.07 1375.03 451.392 1375.6 449.921L1375.67 449.758L1437.07 314.76C1448.36 289.89 1440.1 258.393 1418.76 244.515C1397.93 230.964 1372.3 239.229 1360.97 263.212L1360.63 263.944L1313.43 367.544C1311.97 370.759 1307.17 369.23 1307.73 365.841L1307.77 365.664L1332.97 249.461C1338.95 222.036 1324.66 193.554 1301.36 185.849C1278.57 178.315 1255.35 193.583 1249.21 220.323L1249.03 221.137L1224.03 336.237C1223.32 339.491 1218.68 339.32 1218.15 336.128L1218.12 335.94L1205.02 221.039C1201.8 192.738 1179.83 172.397 1156.28 175.376C1132.95 178.326 1116.29 203.097 1119.09 231.011L1119.18 231.858L1132.78 350.158C1133.18 353.593 1128.45 354.823 1127.07 351.753L1127 351.584L1097.2 274.685C1087.1 248.634 1061.46 236.637 1039.96 247.574C1018.4 258.539 1008.73 288.306 1018.4 314.328L1018.7 315.115L1070.9 449.715C1071.5 451.26 1070.73 452.998 1069.18 453.597C1067.7 454.175 1066.03 453.483 1065.37 452.047L1065.3 451.885L1013.1 317.285C1001.88 288.334 1012.58 254.769 1037.24 242.226C1061.85 229.707 1090.89 243.055 1102.45 271.645L1102.8 272.516L1124.15 327.614L1113.22 232.54C1109.68 201.521 1128.1 173.412 1154.71 169.534L1155.52 169.424Z" fill="#DD6A91"/>
<path fill-rule="evenodd" clip-rule="evenodd" d="M1431.5 447.9C1441.05 447.9 1448.82 455.566 1449 465.072L1449 465.4V518.5C1449 528.048 1441.33 535.822 1431.83 535.997L1431.5 536H1409.58L1368.72 709.388C1368.35 710.944 1366.84 711.928 1365.28 711.656L1365.11 711.62C1363.56 711.254 1362.57 709.739 1362.84 708.185L1362.88 708.012L1404.28 532.312C1404.59 531.017 1405.7 530.084 1407.02 530.006L1407.2 530H1431.5C1437.75 530 1442.84 525.001 1443 518.792L1443 518.5V465.4C1443 459.155 1438 454.059 1431.79 453.904L1431.5 453.9H1008.5C1002.25 453.9 997.159 458.9 997.004 465.108L997 465.4V518.5C997 524.746 1002 529.841 1008.21 529.997L1008.5 530H1034.5C1035.83 530 1037 530.876 1037.37 532.138L1037.42 532.312L1109.32 837.512C1109.7 839.125 1108.7 840.741 1107.09 841.12C1105.53 841.487 1103.98 840.571 1103.53 839.059L1103.48 838.888L1032.12 536H1008.5C998.953 536 991.178 528.334 991.003 518.829L991 518.5V465.4C991 455.853 998.666 448.079 1008.17 447.903L1008.5 447.9H1431.5Z" fill="#2E186A"/>
<path fill-rule="evenodd" clip-rule="evenodd" d="M1289.92 661.142C1296.66 658.259 1301.59 659.057 1306.4 663.332C1307.51 664.319 1308.61 665.456 1310.01 667.05L1310.89 668.062C1311.7 669.024 1314.27 672.033 1315.21 673.097C1319.44 677.883 1323.45 681.688 1328.53 685.396C1329.23 685.912 1329.95 686.42 1330.68 686.917L1331.65 687.565C1337.14 691.236 1341.66 693.734 1351.65 698.873L1355.41 700.807C1360.23 703.299 1363.13 704.863 1366.41 706.784C1378.86 714.075 1388.76 722.335 1398.54 734.522C1399.58 735.814 1399.37 737.702 1398.08 738.74C1396.79 739.777 1394.9 739.57 1393.86 738.278C1384.75 726.932 1375.61 719.225 1364.11 712.396L1362.74 711.594C1359.71 709.835 1356.87 708.308 1352.15 705.877L1347.18 703.32C1337.61 698.376 1333.19 695.868 1327.31 691.88C1326.52 691.341 1325.75 690.795 1324.99 690.241C1319.76 686.424 1315.59 682.513 1311.3 677.728L1310.28 676.569C1308.86 674.937 1306.08 671.674 1306.09 671.686L1305.53 671.042C1304.27 669.605 1303.32 668.617 1302.42 667.819C1299.34 665.086 1296.89 664.689 1292.29 666.654C1288.83 668.152 1288.08 671.675 1290.13 678.043C1292.09 684.138 1296.49 691.941 1302.86 701.085C1303.81 702.444 1303.47 704.314 1302.12 705.261C1300.76 706.209 1298.89 705.875 1297.94 704.516C1291.25 694.924 1286.61 686.672 1284.42 679.883C1281.54 670.934 1282.97 664.145 1289.92 661.142Z" fill="#2E186A"/>
<path fill-rule="evenodd" clip-rule="evenodd" d="M1191.47 680.303L1192.56 680.261C1203.29 679.89 1220.39 680.727 1237.25 683.066C1262.3 686.541 1284.81 692.858 1302.63 702.566C1304.09 703.359 1304.63 705.181 1303.83 706.636C1303.04 708.09 1301.22 708.627 1299.76 707.835C1282.95 698.676 1261.52 692.592 1237.6 689.175L1236.42 689.009C1219.35 686.64 1202.01 685.844 1191.74 686.297C1185.77 686.585 1184.29 691.006 1189.15 697.867C1190.11 699.219 1189.79 701.092 1188.43 702.049C1187.08 703.006 1185.21 702.686 1184.25 701.334C1176.89 690.929 1180.26 680.843 1191.47 680.303Z" fill="#2E186A"/>
<path fill-rule="evenodd" clip-rule="evenodd" d="M1171.87 696.809C1180.3 696.165 1199.11 698.3 1218.53 702.403C1242.81 707.531 1265.83 715.076 1284.09 724.643C1285.56 725.412 1286.13 727.225 1285.36 728.693C1284.59 730.16 1282.78 730.727 1281.31 729.958C1263.59 720.677 1241.07 713.296 1217.29 708.273L1215.29 707.857C1197.1 704.135 1179.8 702.221 1172.33 702.792C1163.1 703.489 1164.93 716.11 1180.98 728.959C1182.27 729.995 1182.48 731.883 1181.44 733.176C1180.41 734.469 1178.52 734.678 1177.22 733.642C1167.74 726.047 1162.05 717.792 1161.01 710.582C1159.9 702.974 1164.23 697.387 1171.87 696.809Z" fill="#2E186A"/>
<path fill-rule="evenodd" clip-rule="evenodd" d="M1182.55 727.804C1199.16 726.987 1243 737.153 1274.53 751.262C1276.04 751.939 1276.72 753.713 1276.04 755.226C1275.36 756.738 1273.59 757.415 1272.07 756.738C1256.12 749.6 1237.86 743.65 1219.86 739.384L1218.32 739.023C1202.92 735.45 1189.06 733.491 1182.86 733.796C1178.27 734.041 1175.98 737.496 1176.95 743.347C1178.18 750.77 1184.38 759.747 1194.94 767.929C1196.25 768.944 1196.49 770.828 1195.47 772.138C1194.46 773.447 1192.57 773.686 1191.26 772.671C1179.6 763.633 1172.53 753.406 1171.03 744.328C1169.51 735.175 1174.1 728.255 1182.55 727.804Z" fill="#2E186A"/>
<path fill-rule="evenodd" clip-rule="evenodd" d="M1200.24 759.323C1211.58 757.933 1243.64 765.986 1272.75 778.028C1274.28 778.662 1275.01 780.416 1274.37 781.947C1273.74 783.478 1271.98 784.206 1270.45 783.573L1268.76 782.877C1241 771.592 1210.79 764.075 1200.95 765.279C1197.6 765.679 1196.26 767.013 1196.39 769.294C1196.58 772.599 1199.56 777.444 1205.3 782.871C1220.12 796.888 1249.09 811.554 1290.06 823.827C1291.65 824.302 1292.55 825.974 1292.07 827.561C1291.6 829.148 1289.93 830.05 1288.34 829.574C1246.55 817.055 1216.78 801.985 1201.18 787.23C1194.43 780.853 1190.69 774.778 1190.4 769.638C1190.07 763.928 1193.95 760.072 1200.24 759.323Z" fill="#2E186A"/>
<path fill-rule="evenodd" clip-rule="evenodd" d="M1302.41 701.5L1302.59 701.506C1341.53 703.938 1374.26 715.158 1397.59 732.744C1418.88 748.794 1430.9 769.31 1430.84 788.747C1430.77 808.772 1417.96 825.263 1394.89 833.589C1369.54 842.741 1333.26 841.829 1288.41 829.594C1286.81 829.158 1285.87 827.509 1286.31 825.911C1286.74 824.312 1288.39 823.37 1289.99 823.806C1333.75 835.742 1368.81 836.624 1392.86 827.945C1413.65 820.44 1424.78 806.113 1424.84 788.728C1424.89 771.354 1413.86 752.525 1393.97 737.535C1371.63 720.689 1340.03 709.856 1302.21 707.494C1300.56 707.391 1299.3 705.967 1299.41 704.313C1299.51 702.719 1300.83 701.493 1302.41 701.5Z" fill="#2E186A"/>
<path fill-rule="evenodd" clip-rule="evenodd" d="M1694.6 835.8C1696.26 835.8 1697.6 837.143 1697.6 838.8C1697.6 840.398 1696.35 841.704 1694.78 841.795L1694.6 841.8H3C1.34315 841.8 0 840.457 0 838.8C0 837.203 1.24892 835.897 2.82373 835.805L3 835.8H1694.6Z" fill="#2E186A"/>
</svg>
